<?xml version="1.0" standalone="no"?>
<!DOCTYPE svg PUBLIC "-//W3C//DTD SVG 20010904//EN"
 "http://www.w3.org/TR/2001/REC-SVG-20010904/DTD/svg10.dtd">
<svg version="1.0" xmlns="http://www.w3.org/2000/svg"
 width="1272.000000pt" height="1272.000000pt" viewBox="0 0 1272.000000 1272.000000"
 preserveAspectRatio="xMidYMid meet">
<metadata>
Created by potrace 1.11, written by Peter Selinger 2001-2013
</metadata>
<g transform="translate(0.000000,1272.000000) scale(0.100000,-0.100000)"
fill="#000000" stroke="none">
<path d="M6176 12703 c-17 -8 -85 -49 -154 -89 -68 -41 -125 -74 -127 -74 -2
0 -38 -21 -81 -46 -43 -25 -193 -113 -334 -194 -140 -81 -439 -254 -665 -385
-225 -131 -426 -247 -445 -257 -19 -11 -73 -43 -120 -71 -47 -27 -101 -59
-120 -70 -19 -11 -69 -39 -111 -63 l-76 -44 0 -1493 c0 -1344 -3 -1577 -18
-1658 -3 -13 -10 -51 -16 -84 -51 -285 -189 -650 -354 -935 -21 -36 -43 -74
-49 -85 -112 -197 -365 -529 -561 -734 -59 -62 -226 -227 -284 -281 -328 -305
-794 -635 -1294 -917 -148 -83 -587 -305 -737 -372 -97 -43 -484 -204 -533
-222 l-37 -13 0 -1338 c0 -1169 2 -1338 15 -1338 8 0 29 7 47 14 18 8 116 45
218 82 175 63 568 215 655 254 22 10 83 36 136 58 98 42 278 123 449 203 133
62 506 250 623 315 53 30 102 54 107 54 6 0 10 5 10 10 0 6 5 10 10 10 6 0 65
32 133 71 67 40 131 77 142 83 49 28 217 132 285 177 41 27 82 52 90 57 24 12
225 148 355 241 503 358 987 784 1355 1191 52 57 100 110 106 116 5 6 26 30
45 54 18 23 42 52 53 63 172 197 437 570 598 842 250 420 401 759 557 1250 34
106 99 379 117 494 3 18 7 42 9 53 3 11 7 46 11 77 3 31 10 78 14 104 5 37 12
4908 6 4907 0 -1 -14 -8 -30 -17z"/>
<path d="M6509 12683 c-4 -305 1 -4780 6 -4838 8 -101 12 -132 19 -170 3 -16
10 -59 15 -95 6 -36 13 -74 15 -85 2 -11 12 -55 20 -97 45 -215 142 -519 248
-783 97 -241 294 -632 419 -830 185 -294 437 -641 610 -840 152 -175 257 -288
405 -438 112 -113 361 -345 444 -413 19 -16 37 -31 40 -34 10 -10 176 -147
235 -194 33 -26 68 -53 77 -61 9 -8 70 -54 135 -102 520 -388 1030 -699 1673
-1021 252 -126 349 -172 590 -280 165 -74 507 -214 695 -285 212 -81 479 -177
489 -177 11 0 17 2663 6 2673 -3 2 -90 39 -195 82 -167 68 -240 100 -435 187
-96 43 -430 209 -530 264 -58 31 -125 68 -150 81 -36 20 -205 120 -318 188
-278 168 -657 449 -920 682 -171 151 -472 466 -567 594 -11 15 -47 62 -81 105
-243 315 -437 673 -552 1019 -62 187 -80 258 -118 470 -3 22 -8 735 -9 1585
-2 953 -6 1545 -12 1547 -5 2 -115 65 -244 139 -129 75 -322 187 -429 249
-107 62 -337 194 -510 295 -321 186 -355 206 -425 246 -22 12 -141 81 -264
153 -123 72 -225 131 -227 131 -2 0 -34 19 -71 41 -38 23 -71 43 -75 46 -5 2
-8 -13 -9 -34z"/>
<path d="M6189 4056 c-2 -2 -49 -7 -104 -10 -104 -6 -123 -8 -315 -32 -106
-13 -131 -17 -200 -29 -39 -7 -293 -56 -312 -61 -10 -2 -26 -6 -35 -8 -365
-86 -757 -220 -983 -334 -52 -26 -259 -141 -460 -256 -201 -115 -378 -217
-395 -226 -16 -9 -127 -72 -245 -140 -118 -67 -231 -132 -250 -143 -31 -17
-98 -55 -220 -124 -19 -11 -145 -83 -280 -160 -135 -77 -551 -315 -925 -528
-1207 -688 -1315 -750 -1315 -755 0 -5 759 -445 855 -496 11 -6 138 -79 283
-162 144 -84 266 -152 271 -152 5 0 11 -3 13 -7 2 -5 17 -15 33 -24 17 -9 86
-49 155 -89 69 -39 143 -82 165 -95 22 -12 85 -48 140 -80 55 -32 125 -71 155
-88 30 -16 60 -34 66 -38 10 -8 23 -3 99 41 22 13 211 118 420 235 474 265
639 357 840 470 145 81 668 372 715 398 30 17 71 40 90 52 192 117 686 281
1050 350 72 14 139 25 175 30 22 2 49 6 60 9 11 2 47 7 80 10 33 4 71 9 85 11
14 2 61 7 105 10 44 4 100 8 125 10 25 2 137 4 250 5 188 1 257 -2 425 -14 78
-6 258 -28 335 -42 14 -2 52 -8 85 -14 33 -5 71 -12 85 -15 14 -3 48 -10 75
-16 100 -19 353 -89 485 -132 313 -104 544 -207 785 -349 97 -57 190 -111 208
-122 18 -10 168 -99 334 -197 166 -98 317 -187 335 -198 18 -10 69 -40 113
-66 44 -26 206 -122 360 -213 154 -90 318 -187 364 -215 46 -28 89 -50 96 -50
6 0 61 29 121 65 87 52 435 257 504 298 8 4 77 46 154 92 76 46 150 90 165 98
62 36 238 141 401 238 96 58 195 116 220 130 25 14 56 33 70 42 14 9 30 19 35
21 6 2 36 20 68 39 68 41 61 37 202 119 61 35 123 73 138 84 l28 19 -138 81
c-76 44 -163 93 -193 110 -30 16 -66 38 -80 47 -14 9 -50 31 -80 48 -30 16
-188 108 -350 202 -162 95 -315 184 -340 198 -25 14 -79 45 -120 70 -70 42
-91 54 -172 101 -84 47 -495 288 -693 404 -121 71 -233 137 -250 147 -16 9
-136 79 -265 155 -129 76 -248 146 -265 155 -26 15 -736 433 -940 553 -87 52
-209 110 -345 166 -58 24 -114 47 -125 52 -11 5 -47 18 -80 29 -33 12 -69 25
-80 30 -58 26 -459 138 -550 153 -16 3 -66 12 -110 21 -117 22 -135 25 -185
31 -25 3 -72 10 -105 15 -33 5 -91 12 -130 15 -38 4 -83 9 -100 12 -39 6 -680
15 -686 9z"/>
</g>
</svg>
