<?xml version="1.0" encoding="UTF-8"?>
<svg width="1920px" height="900px" viewBox="0 0 1920 900" version="1.1" xmlns="http://www.w3.org/2000/svg" xmlns:xlink="http://www.w3.org/1999/xlink">
    <!-- Generator: Sketch 51.2 (57519) - http://www.bohemiancoding.com/sketch -->
    <title>Artboard</title>
    <desc>Created with Sketch.</desc>
    <defs>
        <linearGradient x1="50%" y1="100%" x2="50%" y2="0%" id="linearGradient-1">
            <stop stop-color="#808080" stop-opacity="0.25" offset="0%"></stop>
            <stop stop-color="#808080" stop-opacity="0.12" offset="54%"></stop>
            <stop stop-color="#808080" stop-opacity="0.1" offset="100%"></stop>
        </linearGradient>
        <linearGradient x1="50%" y1="0%" x2="50%" y2="100%" id="linearGradient-2">
            <stop stop-color="#F2F2F2" offset="0%"></stop>
            <stop stop-color="#E6E6E6" offset="31%"></stop>
            <stop stop-color="#CCCCCC" offset="77%"></stop>
        </linearGradient>
        <linearGradient x1="50%" y1="100%" x2="50%" y2="0.0343170899%" id="linearGradient-3">
            <stop stop-color="#808080" stop-opacity="0.25" offset="0%"></stop>
            <stop stop-color="#808080" stop-opacity="0.12" offset="54%"></stop>
            <stop stop-color="#808080" stop-opacity="0.1" offset="100%"></stop>
        </linearGradient>
        <linearGradient x1="50%" y1="4.10718344e-13%" x2="50%" y2="100%" id="linearGradient-4">
            <stop stop-color="#F2F2F2" offset="0%"></stop>
            <stop stop-color="#E0E0E0" offset="31%"></stop>
            <stop stop-color="#B3B3B3" offset="77%"></stop>
        </linearGradient>
        <linearGradient x1="50%" y1="0%" x2="50%" y2="100.032701%" id="linearGradient-5">
            <stop stop-color="#F2F2F2" offset="0%"></stop>
            <stop stop-color="#E6E6E6" offset="31%"></stop>
            <stop stop-color="#CCCCCC" offset="77%"></stop>
        </linearGradient>
        <linearGradient x1="49.9540293%" y1="99.9430785%" x2="49.9540293%" y2="-0.0566800544%" id="linearGradient-6">
            <stop stop-color="#808080" stop-opacity="0.25" offset="0%"></stop>
            <stop stop-color="#808080" stop-opacity="0.12" offset="54%"></stop>
            <stop stop-color="#808080" stop-opacity="0.1" offset="100%"></stop>
        </linearGradient>
        <linearGradient x1="50.0721261%" y1="100.095365%" x2="50.0721261%" y2="0.0957582806%" id="linearGradient-7">
            <stop stop-color="#808080" stop-opacity="0.25" offset="0%"></stop>
            <stop stop-color="#808080" stop-opacity="0.12" offset="54%"></stop>
            <stop stop-color="#808080" stop-opacity="0.1" offset="100%"></stop>
        </linearGradient>
    </defs>
    <g id="Artboard" stroke="none" stroke-width="1" fill="none" fill-rule="evenodd">
        <g id="rocket" transform="translate(223.000000, 64.000000)" fill-rule="nonzero">
            <g id="Group" opacity="0.7" transform="translate(697.000000, 589.000000)" fill="url(#linearGradient-1)">
                <circle id="Oval" cx="13.43" cy="14.27" r="13.36"></circle>
            </g>
            <circle id="Oval" fill="url(#linearGradient-2)" cx="710.43" cy="603.27" r="12.38"></circle>
            <g id="Group" opacity="0.7" transform="translate(757.000000, 717.000000)" fill="url(#linearGradient-3)">
                <circle id="Oval" cx="14.61" cy="15.18" r="14.57"></circle>
            </g>
            <circle id="Oval" fill="url(#linearGradient-4)" cx="771.61" cy="732.18" r="13.84"></circle>
            <g id="Group" opacity="0.7" transform="translate(132.000000, 633.000000)" fill="url(#linearGradient-1)">
                <circle id="Oval" cx="16.17" cy="16.15" r="16.01"></circle>
            </g>
            <circle id="Oval" fill="url(#linearGradient-5)" cx="148.17" cy="649.15" r="15.29"></circle>
            <g id="Group" opacity="0.4" transform="translate(672.000000, 0.000000)" fill="url(#linearGradient-6)">
                <path d="M79.32,17.47 C75.7712603,12.7806164 71.3249392,8.84419447 66.24,5.89 C50.2529521,-3.29708074 30.2296877,-1.52022992 16.1102291,10.3384817 C1.99077044,22.1971932 -3.21821855,41.6125158 3.06912752,58.9462238 C9.35647359,76.2799317 25.8012977,87.8409039 44.24,87.89 C45.17,87.89 46.1,87.89 47.02,87.8 C63.1476202,86.7826519 77.4131294,76.9892487 84.1579317,62.3044683 C90.902734,47.619688 89.036694,30.4169734 79.3,17.52 L79.32,17.47 Z" id="Shape"></path>
            </g>
            <path d="M757.77,43.92 C757.771794,65.8255021 740.751491,83.9621063 718.89,85.35 C718.02,85.41 717.14,85.44 716.26,85.44 C698.815028,85.4296734 683.237944,74.5131336 677.274906,58.1189475 C671.311867,41.7247615 676.235424,23.3515477 689.597193,12.1359211 C702.958963,0.920294458 721.907462,-0.744262318 737.02,7.97 C741.829162,10.7629042 746.034216,14.4852435 749.39,18.92 C754.839875,26.1138646 757.783274,34.8948879 757.77,43.92 Z" id="Shape" fill="#446CB3" opacity="0.2"></path>
            <path d="M706.04,17.59 C703.895526,18.5150791 701.825992,19.6050111 699.85,20.85 C698.530421,21.5818396 697.397661,22.6085107 696.54,23.85 C695.684409,25.1217682 695.653109,26.7767901 696.46,28.08 C697.46,29.46 699.46,29.68 701.13,29.77 C704.254741,30.4336264 707.494786,29.3638003 709.61,26.97 L713.18,23.73 C714.42,22.61 715.78,21.06 715.24,19.48 C714.83,18.27 713.47,17.68 712.24,17.48 C709.171652,16.8761176 705.988378,17.4357749 703.31,19.05" id="Shape" fill="#F55F44" opacity="0.05"></path>
            <circle id="Oval" fill="#F55F44" opacity="0.05" cx="691.13" cy="60.31" r="2.18"></circle>
            <circle id="Oval" fill="#F55F44" opacity="0.05" cx="735.56" cy="46.47" r="8.01"></circle>
            <path d="M749.4,18.91 C749.311788,24.7371561 744.667161,29.4701902 738.842704,29.6682464 C733.018246,29.8663027 728.062833,25.4597105 727.578987,19.6520068 C727.095141,13.8443031 731.253064,8.67846875 737.03,7.91 C741.843808,10.7175746 746.049197,14.457209 749.4,18.91 Z" id="Shape" fill="#F55F44" opacity="0.05"></path>
            <path d="M750.2,67.83 C742.966456,78.1228111 731.446132,84.5691883 718.89,85.35 C718.84,84.78 718.81,84.2 718.81,83.62 C718.812707,76.1892668 723.002594,69.3942949 729.640788,66.0551074 C736.278983,62.7159199 744.232306,63.4025364 750.2,67.83 Z" id="Shape" fill="#F55F44" opacity="0.05"></path>
            <circle id="Oval" fill="#535461" opacity="0.25" cx="722.81" cy="344.72" r="5.1"></circle>
            <circle id="Oval" fill="#535461" opacity="0.25" cx="42.81" cy="478.72" r="5.1"></circle>
            <circle id="Oval" fill="#535461" opacity="0.25" cx="919.81" cy="507.72" r="5.1"></circle>
            <circle id="Oval" fill="#535461" opacity="0.25" cx="288.73" cy="266.06" r="5.1"></circle>
            <circle id="Oval" fill="#535461" opacity="0.25" cx="271.98" cy="148.8" r="5.1"></circle>
            <circle id="Oval" fill="#535461" opacity="0.25" cx="127.77" cy="381.13" r="5.1"></circle>
            <polygon id="Shape" fill="#535461" opacity="0.25" points="849.18 387.12 844.64 387.12 844.64 382.59 842.79 382.59 842.79 387.12 838.25 387.12 838.25 388.98 842.79 388.98 842.79 393.51 844.64 393.51 844.64 388.98 849.18 388.98"></polygon>
            <polygon id="Shape" fill="#535461" opacity="0.25" points="925.18 230.12 920.64 230.12 920.64 225.59 918.79 225.59 918.79 230.12 914.25 230.12 914.25 231.98 918.79 231.98 918.79 236.51 920.64 236.51 920.64 231.98 925.18 231.98"></polygon>
            <polygon id="Shape" fill="#535461" opacity="0.25" points="601.55 142.41 597.01 142.41 597.01 137.87 595.16 137.87 595.16 142.41 590.62 142.41 590.62 144.26 595.16 144.26 595.16 148.8 597.01 148.8 597.01 144.26 601.55 144.26"></polygon>
            <polygon id="Shape" fill="#535461" opacity="0.25" points="799.65 361.63 795.11 361.63 795.11 357.1 793.26 357.1 793.26 361.63 788.73 361.63 788.73 363.49 793.26 363.49 793.26 368.02 795.11 368.02 795.11 363.49 799.65 363.49"></polygon>
            <polygon id="Shape" fill="#535461" opacity="0.25" points="633.59 512.39 629.06 512.39 629.06 507.86 627.21 507.86 627.21 512.39 622.67 512.39 622.67 514.25 627.21 514.25 627.21 518.78 629.06 518.78 629.06 514.25 633.59 514.25"></polygon>
            <polygon id="Shape" fill="#535461" opacity="0.25" points="168.93 201.4 164.39 201.4 164.39 196.87 162.54 196.87 162.54 201.4 158 201.4 158 203.25 162.54 203.25 162.54 207.79 164.39 207.79 164.39 203.25 168.93 203.25"></polygon>
            <polygon id="Shape" fill="#535461" opacity="0.25" points="10.93 260.4 6.39 260.4 6.39 255.87 4.54 255.87 4.54 260.4 0 260.4 0 262.25 4.54 262.25 4.54 266.79 6.39 266.79 6.39 262.25 10.93 262.25"></polygon>
            <polygon id="Shape" fill="#535461" opacity="0.25" points="231.56 446.12 227.02 446.12 227.02 441.58 225.17 441.58 225.17 446.12 220.64 446.12 220.64 447.97 225.17 447.97 225.17 452.51 227.02 452.51 227.02 447.97 231.56 447.97"></polygon>
            <circle id="Oval" fill="url(#linearGradient-2)" cx="771.61" cy="732.18" r="13.84"></circle>
            <g id="Group" opacity="0.4" transform="translate(231.000000, 339.000000)" fill="url(#linearGradient-7)">
                <path d="M37.96,9.32 C36.2702647,7.08476375 34.1524362,5.20829291 31.73,3.8 C24.1145664,-0.632802359 14.5379435,0.181499687 7.78027332,5.83644977 C1.02260316,11.4913998 -1.46717009,20.7744932 1.55371625,29.0521023 C4.5746026,37.3297114 12.4584259,42.8269946 21.27,42.8 C21.71,42.8 22.16,42.8 22.59,42.8 C30.2671898,42.3089271 37.0554636,37.6439513 40.2658437,30.6529674 C43.4762239,23.6619835 42.5906821,15.4730595 37.96,9.33 L37.96,9.32 Z" id="Shape"></path>
            </g>
            <path d="M272.03,360.92 C272.029766,371.353157 263.922282,379.990342 253.51,380.65 C253.1,380.65 252.68,380.65 252.26,380.65 C243.953303,380.64157 236.537816,375.44146 233.699749,367.634626 C230.861683,359.827791 233.206418,351.079488 239.568395,345.738465 C245.930373,340.397442 254.952535,339.602978 262.15,343.75 C264.438763,345.07978 266.440787,346.85067 268.04,348.96 C270.646262,352.40088 272.048316,356.603529 272.03,360.92 Z" id="Shape" fill="#446CB3" opacity="0.2"></path>
            <path d="M247.39,348.38 C246.350945,348.817292 245.347858,349.335553 244.39,349.93 C243.762312,350.272812 243.221749,350.755214 242.81,351.34 C242.421082,351.949945 242.421082,352.730055 242.81,353.34 C243.398222,353.917181 244.208817,354.209287 245.03,354.14 C246.505127,354.442031 248.029428,353.935201 249.03,352.81 L250.73,351.27 C251.32,350.73 251.97,350 251.73,349.27 C251.457262,348.708331 250.911557,348.329369 250.29,348.27 C248.829346,347.984224 247.314611,348.25153 246.04,349.02" id="Shape" fill="#F55F44" opacity="0.1"></path>
            <circle id="Oval" fill="#F55F44" opacity="0.1" cx="240.29" cy="368.72" r="1.04"></circle>
            <circle id="Oval" fill="#F55F44" opacity="0.1" cx="261.45" cy="362.13" r="3.82"></circle>
            <path d="M268.04,349.05 C268.004776,351.823409 265.799017,354.080994 263.027174,354.180607 C260.255331,354.28022 257.893207,352.186793 257.658992,349.423068 C257.424777,346.659342 259.400924,344.198263 262.15,343.83 C264.439689,345.162716 266.441779,346.937064 268.04,349.05 Z" id="Shape" fill="#F55F44" opacity="0.1"></path>
            <path d="M268.43,372.31 C264.986747,377.214063 259.500496,380.286511 253.519952,380.66 C253.52,380.39 253.52,380.11 253.52,379.83 C253.508597,376.273699 255.511457,373.017471 258.690628,371.423646 C261.869799,369.829822 265.677238,370.173154 268.52,372.31 L268.43,372.31 Z" id="Shape" fill="#F55F44" opacity="0.1"></path>
        </g>
        <g id="rocket" transform="translate(951.000000, 437.000000) rotate(180.000000) translate(-951.000000, -437.000000) translate(589.000000, 145.000000)" fill-rule="nonzero">
            <g id="Group" opacity="0.7" transform="translate(544.948328, 460.632219)" fill="url(#linearGradient-1)">
                <ellipse id="Oval" cx="10.5952313" cy="11.308185" rx="10.5400068" ry="10.5870604"></ellipse>
            </g>
            <circle id="Oval" fill="url(#linearGradient-2)" cx="555.598784" cy="472.170213" r="9.76291793"></circle>
            <g id="Group" opacity="0.7" transform="translate(591.987842, 560.924012)" fill="url(#linearGradient-3)">
                <circle id="Oval" cx="11.2380061" cy="11.6764498" r="11.2072381"></circle>
            </g>
            <circle id="Oval" fill="url(#linearGradient-4)" cx="603.969605" cy="572.018237" r="11.0942249"></circle>
            <g id="Group" opacity="0.7" transform="translate(102.954407, 495.246201)" fill="url(#linearGradient-1)">
                <circle id="Oval" cx="12.6119149" cy="12.5963157" r="12.4871217"></circle>
            </g>
            <circle id="Oval" fill="url(#linearGradient-5)" cx="115.823708" cy="507.227964" r="11.9817629"></circle>
            <g id="Group" opacity="0.4" transform="translate(525.422492, 0.000000)" fill="url(#linearGradient-6)">
                <path d="M61.6984502,13.7433241 C58.9380904,10.0542732 55.4795538,6.95756332 51.5242731,4.63355347 C39.0888712,-2.5937521 23.5139294,-1.19593661 12.5312174,8.13309126 C1.54850543,17.4621191 -2.50326648,32.7357924 2.38729717,46.3718981 C7.27786081,60.0080038 20.0693404,69.1028056 34.4117428,69.1414286 C35.1351361,69.1414286 35.8585294,69.1414286 36.5741443,69.0706272 C49.1188893,68.2702984 60.2152056,60.5660102 65.461598,49.0137666 C70.7079905,37.461523 69.2565056,23.9284673 61.6828933,13.7826582 L61.6984502,13.7433241 Z" id="Shape"></path>
            </g>
            <path d="M592.875345,34.1625394 C592.876746,51.2579109 579.59021,65.4119799 562.524504,66.4951122 C561.845357,66.5419371 561.158404,66.5653495 560.471451,66.5653495 C546.853406,66.5572905 534.693488,58.0378645 530.03857,45.243604 C525.383652,32.4493434 529.227121,18.1106209 539.6577,9.35778322 C550.08828,0.604945558 564.880021,-0.694098691 576.677301,6.106638 C580.431471,8.28626097 583.714056,11.1912285 586.333677,14.6521768 C590.588006,20.2663731 592.885707,27.119211 592.875345,34.1625394 Z" id="Shape" fill="#446CB3" opacity="0.2"></path>
            <path d="M551.931024,13.5793926 C550.270526,14.2893848 548.668056,15.1259005 547.138017,16.0814214 C546.116247,16.6431036 545.239134,17.431067 544.575035,18.383902 C543.912539,19.3599758 543.888302,20.6301944 544.51309,21.6303995 C545.287405,22.6895406 546.836034,22.8583892 548.129139,22.9274636 C550.548672,23.4367926 553.057486,22.6157079 554.695327,20.7784817 L557.45963,18.2918028 C558.41978,17.43221 559.472848,16.2425951 559.054718,15.0299553 C558.737249,14.1012882 557.684181,13.648467 556.731774,13.4949683 C554.355907,13.0314925 551.891052,13.4610258 549.817145,14.6999331" id="Shape" fill="#F55F44" opacity="0.05"></path>
            <circle id="Oval" fill="#F55F44" opacity="0.05" cx="540.510638" cy="47.0395137" r="1.77507599"></circle>
            <circle id="Oval" fill="#F55F44" opacity="0.05" cx="575.12462" cy="35.5015198" r="6.21276596"></circle>
            <path d="M585.775076,14.7355444 C585.707025,19.2504135 582.123953,22.917559 577.630707,23.0710126 C573.137461,23.2244661 569.314634,19.8102472 568.941374,15.3104498 C568.568113,10.8106524 571.775721,6.80817404 576.232307,6.21276596 C579.945893,8.38806926 583.190117,11.2855306 585.775076,14.7355444 Z" id="Shape" fill="#F55F44" opacity="0.05"></path>
            <path d="M585.775076,52.5943353 C580.252896,60.2807365 571.458134,65.0947219 561.872623,65.6778116 C561.834453,65.2521505 561.81155,64.8190217 561.81155,64.3858929 C561.813617,58.8368164 565.01223,53.7625097 570.079912,51.2688921 C575.147594,48.7752745 581.219263,49.2880217 585.775076,52.5943353 Z" id="Shape" fill="#F55F44" opacity="0.05"></path>
            <circle id="Oval" fill="#535461" opacity="0.25" cx="565.805471" cy="269.367781" r="3.99392097"></circle>
            <circle id="Oval" fill="#535461" opacity="0.25" cx="33.2826748" cy="374.984802" r="3.99392097"></circle>
            <circle id="Oval" fill="#535461" opacity="0.25" cx="719.349544" cy="397.173252" r="3.99392097"></circle>
            <circle id="Oval" fill="#535461" opacity="0.25" cx="225.878419" cy="208.12766" r="3.99392097"></circle>
            <circle id="Oval" fill="#535461" opacity="0.25" cx="212.56535" cy="116.711246" r="3.99392097"></circle>
            <circle id="Oval" fill="#535461" opacity="0.25" cx="99.8480243" cy="297.768997" r="3.99392097"></circle>
            <polygon id="Shape" fill="#535461" opacity="0.25" points="663.878419 302.782124 660.191848 302.782124 660.191848 299.100304 658.689611 299.100304 658.689611 302.782124 655.00304 302.782124 655.00304 304.293864 658.689611 304.293864 658.689611 307.975684 660.191848 307.975684 660.191848 304.293864 663.878419 304.293864"></polygon>
            <polygon id="Shape" fill="#535461" opacity="0.25" points="723.343465 180.30188 719.656894 180.30188 719.656894 176.620061 718.154656 176.620061 718.154656 180.30188 714.468085 180.30188 714.468085 181.813621 718.154656 181.813621 718.154656 185.495441 719.656894 185.495441 719.656894 181.813621 723.343465 181.813621"></polygon>
            <polygon id="Shape" fill="#535461" opacity="0.25" points="471.282675 111.966207 467.596103 111.966207 467.596103 108.279635 466.093866 108.279635 466.093866 111.966207 462.407295 111.966207 462.407295 113.468444 466.093866 113.468444 466.093866 117.155015 467.596103 117.155015 467.596103 113.468444 471.282675 113.468444"></polygon>
            <polygon id="Shape" fill="#535461" opacity="0.25" points="625.714286 282.36875 622.024338 282.36875 622.024338 278.68693 620.520725 278.68693 620.520725 282.36875 616.838906 282.36875 616.838906 283.88049 620.520725 283.88049 620.520725 287.56231 622.024338 287.56231 622.024338 283.88049 625.714286 283.88049"></polygon>
            <polygon id="Shape" fill="#535461" opacity="0.25" points="496.133739 400.411303 492.451919 400.411303 492.451919 396.729483 490.948306 396.729483 490.948306 400.411303 487.258359 400.411303 487.258359 401.923044 490.948306 401.923044 490.948306 405.604863 492.451919 405.604863 492.451919 401.923044 496.133739 401.923044"></polygon>
            <polygon id="Shape" fill="#535461" opacity="0.25" points="132.243161 158.113431 128.55659 158.113431 128.55659 154.431611 127.054353 154.431611 127.054353 158.113431 123.367781 158.113431 123.367781 159.617044 127.054353 159.617044 127.054353 163.306991 128.55659 163.306991 128.55659 159.617044 132.243161 159.617044"></polygon>
            <polygon id="Shape" fill="#535461" opacity="0.25" points="8.87537994 203.377868 5.18880858 203.377868 5.18880858 199.696049 3.68657136 199.696049 3.68657136 203.377868 0 203.377868 0 204.881481 3.68657136 204.881481 3.68657136 208.571429 5.18880858 208.571429 5.18880858 204.881481 8.87537994 204.881481"></polygon>
            <polygon id="Shape" fill="#535461" opacity="0.25" points="181.945289 348.938851 178.255341 348.938851 178.255341 345.25228 176.751729 345.25228 176.751729 348.938851 173.069909 348.938851 173.069909 350.441088 176.751729 350.441088 176.751729 354.12766 178.255341 354.12766 178.255341 350.441088 181.945289 350.441088"></polygon>
            <circle id="Oval" fill="url(#linearGradient-2)" cx="603.969605" cy="572.018237" r="11.0942249"></circle>
            <g id="Group" opacity="0.4" transform="translate(181.057751, 265.373860)" fill="url(#linearGradient-7)">
                <path d="M29.7733908,7.3100106 C28.4480708,5.55683456 26.7869819,4.08505112 24.8869782,2.98047643 C18.9139201,-0.496329608 11.402631,0.142356721 6.10234769,4.57773709 C0.802064372,9.01311746 -1.15075417,16.2941809 1.21863544,22.7866069 C3.58802505,29.2790328 9.77159073,33.5907495 16.6828246,33.5695766 C17.0279324,33.5695766 17.3808836,33.5695766 17.718148,33.5695766 C23.7396436,33.1844105 29.0639305,29.5255025 31.5819469,24.0422228 C34.0999632,18.5589431 33.405401,12.1360761 29.7733908,7.31785396 L29.7733908,7.3100106 Z" id="Shape"></path>
            </g>
            <path d="M213.008979,281.824798 C213.008795,290.021373 206.636264,296.806982 198.452147,297.325228 C198.129885,297.325228 197.799762,297.325228 197.46964,297.325228 C190.940526,297.318605 185.111908,293.233256 182.881171,287.099993 C180.650433,280.966729 182.493409,274.093822 187.493962,269.897768 C192.494515,265.701713 199.585989,265.077561 205.24324,268.335575 C207.042221,269.380287 208.615824,270.771547 209.872815,272.428694 C211.921353,275.131944 213.023376,278.433661 213.008979,281.824798 Z" id="Shape" fill="#446CB3" opacity="0.2"></path>
            <path d="M193.667453,272.63628 C192.87098,272.956109 192.102079,273.335157 191.367846,273.769926 C190.886702,274.020653 190.472341,274.373474 190.156721,274.801177 C189.858601,275.247281 189.858601,275.817841 190.156721,276.263945 C190.607613,276.686086 191.228963,276.899728 191.858429,276.849052 C192.989166,277.069953 194.157597,276.699266 194.924571,275.876312 L196.227681,274.74998 C196.679937,274.355033 197.178185,273.821123 196.994216,273.287212 C196.785153,272.876416 196.366851,272.59925 195.890405,272.555828 C194.770762,272.346816 193.609664,272.542319 192.63263,273.104366" id="Shape" fill="#F55F44" opacity="0.1"></path>
            <circle id="Oval" fill="#F55F44" opacity="0.1" cx="188.158055" cy="288.449848" r="1"></circle>
            <circle id="Oval" fill="#F55F44" opacity="0.1" cx="204.577508" cy="282.680851" r="3.10638298"></circle>
            <path d="M209.458967,272.951099 C209.431912,275.090708 207.737727,276.832373 205.608748,276.909222 C203.479768,276.986071 201.665484,275.371049 201.48559,273.238911 C201.305695,271.106772 202.823521,269.208117 204.935014,268.924012 C206.693663,269.952166 208.231416,271.321027 209.458967,272.951099 Z" id="Shape" fill="#F55F44" opacity="0.1"></path>
            <path d="M210.277277,290.805399 C207.628736,294.634579 203.408729,297.033601 198.808511,297.325228 C198.808548,297.114407 198.808548,296.895778 198.808548,296.677149 C198.799777,293.900326 200.340371,291.357805 202.78578,290.113319 C205.231189,288.868832 208.15986,289.136912 210.346505,290.805399 L210.277277,290.805399 Z" id="Shape" fill="#F55F44" opacity="0.1"></path>
        </g>
    </g>
</svg>