<?xml version="1.0" encoding="UTF-8"?>
<svg width="489px" height="147px" viewBox="0 0 489 147" version="1.1" xmlns="http://www.w3.org/2000/svg" xmlns:xlink="http://www.w3.org/1999/xlink">
    <!-- Generator: Sketch 49.3 (51167) - http://www.bohemiancoding.com/sketch -->
    <title>Page 1</title>
    <desc>Created with Sketch.</desc>
    <defs></defs>
    <g id="Instances" stroke="none" stroke-width="1" fill="none" fill-rule="evenodd">
        <g id="Logo-/-Colour" fill="#FD523A">
            <g id="Page-1">
                <path d="M164.975,58.34 L175.4,58.34 L175.4,17.376 L164.975,17.376 L164.975,58.34 Z M176.511,6.951 C176.511,8.727 175.893,10.23 174.661,11.463 C173.429,12.695 171.937,13.31 170.189,13.31 C168.439,13.31 166.947,12.695 165.715,11.463 C164.482,10.23 163.867,8.727 163.867,6.951 C163.867,5.178 164.482,3.674 165.715,2.442 C166.947,1.209 168.439,0.592 170.189,0.592 C171.937,0.592 173.429,1.209 174.661,2.442 C175.893,3.674 176.511,5.178 176.511,6.951 Z" id="Fill-1"></path>
                <path d="M212.5926,46.6953 C214.7616,44.5513 215.8466,41.6063 215.8466,37.8593 C215.8466,34.1133 214.7616,31.1683 212.5926,29.0243 C210.4216,26.8783 207.8846,25.8073 204.9756,25.8073 C202.0676,25.8073 199.5426,26.8683 197.3966,28.9873 C195.2526,31.1063 194.1816,34.0393 194.1816,37.7863 C194.1816,41.5313 195.2656,44.4893 197.4336,46.6583 C199.6026,48.8263 202.1306,49.9123 205.0136,49.9123 C207.8966,49.9123 210.4216,48.8393 212.5926,46.6953 M189.1146,52.9803 C185.4426,49.0133 183.6076,43.9463 183.6076,37.7863 C183.6076,31.6243 185.4296,26.5843 189.0806,22.6653 C192.7256,18.7463 197.3616,16.7863 202.9796,16.7863 C208.5986,16.7863 212.8886,19.1043 215.8466,23.7363 L215.8466,3.6243 L226.1976,3.6243 L226.1976,58.3413 L215.8466,58.3413 L215.8466,51.4643 C212.7396,56.4433 208.4266,58.9333 202.9066,58.9333 C197.3846,58.9333 192.7876,56.9493 189.1146,52.9803" id="Fill-3"></path>
                <path d="M261.43,28.0258 C259.582,26.3978 257.352,25.5858 254.738,25.5858 C252.125,25.5858 249.945,26.3978 248.194,28.0258 C246.443,29.6518 245.398,31.8208 245.052,34.5318 L264.426,34.5318 C264.277,31.8208 263.278,29.6518 261.43,28.0258 M254.59,58.9338 C248.625,58.9338 243.769,56.9988 240.024,53.1268 C236.277,49.2578 234.405,44.1428 234.405,37.7868 C234.405,31.4268 236.289,26.3378 240.062,22.5158 C243.831,18.6958 248.712,16.7858 254.702,16.7858 C260.691,16.7858 265.609,18.6468 269.452,22.3688 C273.297,26.0908 275.22,31.0558 275.22,37.2688 C275.22,38.6978 275.12,40.0298 274.923,41.2598 L245.052,41.2598 C245.298,43.9218 246.284,46.0658 248.01,47.6938 C249.735,49.3198 251.929,50.1338 254.59,50.1338 C258.189,50.1338 260.85,48.6548 262.576,45.6968 L273.816,45.6968 C272.632,49.5908 270.339,52.7708 266.938,55.2358 C263.536,57.7008 259.421,58.9338 254.59,58.9338" id="Fill-4"></path>
                <path d="M309.5286,46.6953 C311.6976,44.5513 312.7826,41.6063 312.7826,37.8593 C312.7826,34.1133 311.6976,31.1683 309.5286,29.0243 C307.3566,26.8783 304.8196,25.8073 301.9116,25.8073 C299.0036,25.8073 296.4786,26.8683 294.3326,28.9873 C292.1886,31.1063 291.1176,34.0393 291.1176,37.7863 C291.1176,41.5313 292.2006,44.4893 294.3696,46.6583 C296.5386,48.8263 299.0656,49.9123 301.9496,49.9123 C304.8326,49.9123 307.3566,48.8393 309.5286,46.6953 M286.0506,52.9803 C282.3786,49.0133 280.5436,43.9463 280.5436,37.7863 C280.5436,31.6243 282.3656,26.5843 286.0156,22.6653 C289.6616,18.7463 294.2976,16.7863 299.9146,16.7863 C305.5346,16.7863 309.8246,19.1043 312.7826,23.7363 L312.7826,17.3763 L323.1326,17.3763 L323.1326,58.3413 L312.7826,58.3413 L312.7826,51.4643 C309.6746,56.4433 305.3626,58.9333 299.8416,58.9333 C294.3196,58.9333 289.7236,56.9493 286.0506,52.9803" id="Fill-5"></path>
                <polygon id="Fill-6" points="334.224 58.34 344.649 58.34 344.649 3.624 334.224 3.624"></polygon>
                <path d="M191.414,125.409 L201.839,125.409 L201.839,70.692 L191.414,70.692 L191.414,125.409 Z M177.735,82.153 L177.735,84.444 L184.241,84.444 L184.241,92.947 L177.735,92.947 L177.735,125.409 L167.382,125.409 L167.382,92.947 L162.947,92.947 L162.947,84.444 L167.382,84.444 L167.382,82.153 C167.382,77.224 168.689,73.626 171.301,71.357 C173.913,69.091 178.031,67.956 183.651,67.956 L183.651,76.681 C181.48,76.681 179.953,77.102 179.064,77.938 C178.178,78.777 177.735,80.182 177.735,82.153 Z" id="Fill-7"></path>
                <path d="M238.9573,113.7636 C241.1253,111.6186 242.2113,108.6736 242.2113,104.9266 C242.2113,101.1816 241.1253,98.2366 238.9573,96.0916 C236.7863,93.9466 234.2493,92.8746 231.3403,92.8746 C228.4323,92.8746 225.9073,93.9356 223.7613,96.0546 C221.6173,98.1736 220.5463,101.1076 220.5463,104.8546 C220.5463,108.5996 221.6293,111.5576 223.7983,113.7256 C225.9673,115.8946 228.4943,116.9806 231.3773,116.9806 C234.2613,116.9806 236.7863,115.9076 238.9573,113.7636 M215.4793,120.0476 C211.8073,116.0806 209.9723,111.0146 209.9723,104.8546 C209.9723,98.6916 211.7943,93.6526 215.4443,89.7336 C219.0903,85.8136 223.7263,83.8546 229.3433,83.8546 C234.9633,83.8546 239.2533,86.1716 242.2113,90.8036 L242.2113,84.4446 L252.5613,84.4446 L252.5613,125.4096 L242.2113,125.4096 L242.2113,118.5316 C239.1043,123.5116 234.7913,126.0006 229.2713,126.0006 C223.7493,126.0006 219.1523,124.0166 215.4793,120.0476" id="Fill-8"></path>
                <path d="M279.5511,116.6835 L284.5031,116.6835 L284.5031,125.4095 L277.9251,125.4095 C273.7351,125.4095 270.5051,124.4475 268.2371,122.5255 C265.9711,120.6035 264.8351,117.4235 264.8351,112.9865 L264.8351,92.9475 L260.4731,92.9475 L260.4731,84.4445 L264.8351,84.4445 L264.8351,74.3155 L275.2601,74.3155 L275.2601,84.4445 L284.4311,84.4445 L284.4311,92.9475 L275.2601,92.9475 L275.2601,112.9865 C275.2601,114.3185 275.5811,115.2675 276.2241,115.8315 C276.8641,116.4005 277.9721,116.6835 279.5511,116.6835" id="Fill-9"></path>
                <path d="M303.0628,84.4443 L303.0628,90.5823 C305.6748,86.0973 309.9158,83.8543 315.7818,83.8543 C318.8868,83.8543 321.6608,84.5683 324.1008,85.9983 C326.5408,87.4263 328.4258,89.4733 329.7578,92.1353 C331.1868,89.5733 333.1468,87.5513 335.6338,86.0723 C338.1248,84.5933 340.9218,83.8543 344.0278,83.8543 C348.9078,83.8543 352.8368,85.3823 355.8198,88.4383 C358.8028,91.4963 360.2938,95.7833 360.2938,101.3033 L360.2938,125.4093 L349.9438,125.4093 L349.9438,102.7823 C349.9438,99.5783 349.1288,97.1263 347.5028,95.4243 C345.8758,93.7243 343.6568,92.8753 340.8478,92.8753 C338.0398,92.8753 335.8078,93.7243 334.1578,95.4243 C332.5038,97.1263 331.6798,99.5783 331.6798,102.7823 L331.6798,125.4093 L321.3268,125.4093 L321.3268,102.7823 C321.3268,99.5783 320.5148,97.1263 318.8868,95.4243 C317.2608,93.7243 315.0418,92.8753 312.2338,92.8753 C309.4218,92.8753 307.1918,93.7243 305.5408,95.4243 C303.8898,97.1263 303.0628,99.5783 303.0628,102.7823 L303.0628,125.4093 L292.6378,125.4093 L292.6378,84.4443 L303.0628,84.4443 Z" id="Fill-10"></path>
                <path d="M397.1185,113.7636 C399.2865,111.6186 400.3725,108.6736 400.3725,104.9266 C400.3725,101.1816 399.2865,98.2366 397.1185,96.0916 C394.9465,93.9466 392.4095,92.8746 389.5015,92.8746 C386.5935,92.8746 384.0685,93.9356 381.9225,96.0546 C379.7775,98.1736 378.7075,101.1076 378.7075,104.8546 C378.7075,108.5996 379.7905,111.5576 381.9595,113.7256 C384.1285,115.8946 386.6555,116.9806 389.5385,116.9806 C392.4225,116.9806 394.9465,115.9076 397.1185,113.7636 M373.6395,120.0476 C369.9685,116.0806 368.1335,111.0146 368.1335,104.8546 C368.1335,98.6916 369.9555,93.6526 373.6055,89.7336 C377.2515,85.8136 381.8875,83.8546 387.5045,83.8546 C393.1245,83.8546 397.4145,86.1716 400.3725,90.8036 L400.3725,84.4446 L410.7225,84.4446 L410.7225,125.4096 L400.3725,125.4096 L400.3725,118.5316 C397.2645,123.5116 392.9525,126.0006 387.4315,126.0006 C381.9095,126.0006 377.3125,124.0166 373.6395,120.0476" id="Fill-11"></path>
                <path d="M437.7112,116.6835 L442.6642,116.6835 L442.6642,125.4095 L436.0852,125.4095 C431.8952,125.4095 428.6652,124.4475 426.3972,122.5255 C424.1312,120.6035 422.9952,117.4235 422.9952,112.9865 L422.9952,92.9475 L418.6332,92.9475 L418.6332,84.4445 L422.9952,84.4445 L422.9952,74.3155 L433.4212,74.3155 L433.4212,84.4445 L442.5922,84.4445 L442.5922,92.9475 L433.4212,92.9475 L433.4212,112.9865 C433.4212,114.3185 433.7422,115.2675 434.3852,115.8315 C435.0242,116.4005 436.1332,116.6835 437.7112,116.6835" id="Fill-12"></path>
                <path d="M474.9407,95.0937 C473.0927,93.4657 470.8627,92.6537 468.2487,92.6537 C465.6357,92.6537 463.4547,93.4657 461.7047,95.0937 C459.9547,96.7197 458.9087,98.8887 458.5617,101.5997 L477.9357,101.5997 C477.7877,98.8887 476.7887,96.7197 474.9407,95.0937 M468.1007,126.0007 C462.1347,126.0007 457.2797,124.0667 453.5347,120.1947 C449.7877,116.3247 447.9157,111.2107 447.9157,104.8547 C447.9157,98.4947 449.7997,93.4057 453.5727,89.5837 C457.3417,85.7637 462.2217,83.8547 468.2127,83.8547 C474.2017,83.8547 479.1197,85.7137 482.9627,89.4367 C486.8077,93.1587 488.7297,98.1237 488.7297,104.3357 C488.7297,105.7657 488.6297,107.0977 488.4337,108.3277 L458.5617,108.3277 C458.8087,110.9897 459.7947,113.1337 461.5197,114.7617 C463.2457,116.3877 465.4397,117.2017 468.1007,117.2017 C471.6997,117.2017 474.3607,115.7227 476.0867,112.7647 L487.3257,112.7647 C486.1427,116.6587 483.8497,119.8387 480.4487,122.3037 C477.0467,124.7687 472.9317,126.0007 468.1007,126.0007" id="Fill-13"></path>
                <path d="M112.5506,44.2377 L125.9246,54.3677 C125.9336,54.3757 125.9396,54.3867 125.9396,54.3987 L125.9396,115.7867 C125.9396,115.8087 125.9226,115.8257 125.9006,115.8257 L51.4736,115.8257 C50.2556,115.8257 49.0876,116.3107 48.2256,117.1717 L34.8766,130.5207 C34.8526,130.5447 34.8096,130.5287 34.8096,130.4927 L34.8096,120.4587 C34.8096,117.9007 32.7366,115.8257 30.1776,115.8257 L9.2246,115.8257 C9.2036,115.8257 9.1856,115.8087 9.1856,115.7867 L9.1856,54.4037 C9.1856,54.3907 9.1916,54.3797 9.2016,54.3717 L32.0536,37.1187 L41.2396,30.1837 L67.4966,10.3597 C67.5106,10.3487 67.5296,10.3487 67.5436,10.3597 L93.8706,30.1227 C93.8806,30.1307 93.8856,30.1417 93.8856,30.1537 L93.8856,68.9267 C93.8856,68.9487 93.8686,68.9667 93.8466,68.9667 L86.4466,68.9667 C83.8876,68.9667 81.8136,71.0397 81.8136,73.5987 L81.8136,77.7357 C81.8136,77.7707 81.7716,77.7877 81.7476,77.7637 L74.3066,70.3227 C73.4386,69.4547 72.2596,68.9667 71.0316,68.9667 L41.2786,68.9667 C41.2566,68.9667 41.2396,68.9487 41.2396,68.9267 L41.2396,42.7157 C41.2396,42.2847 40.7456,42.0407 40.4036,42.3017 L32.4636,48.3737 C32.2056,48.5717 32.0536,48.8787 32.0536,49.2037 L32.0536,73.5207 C32.0536,76.0777 34.1276,78.1527 36.6856,78.1527 L69.1296,78.1527 C69.1396,78.1527 69.1496,78.1557 69.1566,78.1637 L83.1586,92.1657 C84.6236,93.6307 86.9096,93.9497 88.7446,92.8727 C90.1876,92.0267 90.9996,90.4067 90.9996,88.7347 L90.9996,78.1917 C90.9996,78.1697 91.0176,78.1527 91.0386,78.1527 L98.4406,78.1527 C100.9986,78.1527 103.0716,76.0777 103.0716,73.5207 L103.0716,27.8587 C103.0716,26.4017 102.3866,25.0297 101.2206,24.1547 L70.2696,0.9197 C68.6326,-0.3093 66.3796,-0.3063 64.7446,0.9267 L1.8246,48.4307 C0.6756,49.2997 -0.0004,50.6557 -0.0004,52.0967 L-0.0004,120.3807 C-0.0004,122.9387 2.0736,125.0127 4.6326,125.0127 L25.5856,125.0127 C25.6066,125.0127 25.6246,125.0297 25.6246,125.0517 L25.6246,141.5017 C25.6246,143.1937 26.4636,144.8217 27.9326,145.6607 C28.6516,146.0707 29.4386,146.2697 30.2166,146.2697 C31.4116,146.2687 32.5866,145.8017 33.4656,144.9237 L53.3636,125.0237 C53.3716,125.0167 53.3816,125.0127 53.3916,125.0127 L130.4936,125.0127 C133.0516,125.0127 135.1256,122.9387 135.1256,120.3807 L135.1256,52.0967 C135.1256,50.6587 134.4526,49.3037 133.3056,48.4347 L113.1896,33.1987 C112.8056,32.9087 112.2556,33.1817 112.2556,33.6637 L112.2556,43.6427 C112.2556,43.8767 112.3646,44.0967 112.5506,44.2377" id="Fill-14"></path>
            </g>
        </g>
    </g>
</svg>