<?xml version="1.0" encoding="UTF-8"?>
<svg width="596px" height="552px" viewBox="0 0 596 552" version="1.1" xmlns="http://www.w3.org/2000/svg" xmlns:xlink="http://www.w3.org/1999/xlink">
    <!-- Generator: Sketch 51.2 (57519) - http://www.bohemiancoding.com/sketch -->
    <title>instagam</title>
    <desc>Created with Sketch.</desc>
    <defs>
        <linearGradient x1="50%" y1="99.7089109%" x2="50%" y2="0.776721582%" id="linearGradient-1">
            <stop stop-color="#E09B3D" offset="0%"></stop>
            <stop stop-color="#C74C4D" offset="30%"></stop>
            <stop stop-color="#C21975" offset="60%"></stop>
            <stop stop-color="#7024C4" offset="100%"></stop>
        </linearGradient>
        <linearGradient x1="50%" y1="146.098873%" x2="50%" y2="-45.1596833%" id="linearGradient-2">
            <stop stop-color="#E09B3D" offset="0%"></stop>
            <stop stop-color="#C74C4D" offset="30%"></stop>
            <stop stop-color="#C21975" offset="60%"></stop>
            <stop stop-color="#7024C4" offset="100%"></stop>
        </linearGradient>
        <linearGradient x1="50%" y1="658.140556%" x2="50%" y2="-140.029283%" id="linearGradient-3">
            <stop stop-color="#E09B3D" offset="0%"></stop>
            <stop stop-color="#C74C4D" offset="30%"></stop>
            <stop stop-color="#C21975" offset="60%"></stop>
            <stop stop-color="#7024C4" offset="100%"></stop>
        </linearGradient>
    </defs>
    <g id="Page-1" stroke="none" stroke-width="1" fill="none" fill-rule="evenodd">
        <g id="instagam" fill-rule="nonzero">
            <path d="M386.878,0 L164.156,0 C73.64,0 0,73.64 0,164.156 L0,386.878 C0,477.394 73.64,551.034 164.156,551.034 L386.878,551.034 C477.394,551.034 551.034,477.394 551.034,386.878 L551.034,164.156 C551.033,73.64 477.393,0 386.878,0 Z M495.6,386.878 C495.6,446.923 446.923,495.6 386.878,495.6 L164.156,495.6 C104.111,495.6 55.434,446.923 55.434,386.878 L55.434,164.156 C55.434,104.11 104.111,55.434 164.156,55.434 L386.878,55.434 C446.923,55.434 495.6,104.11 495.6,164.156 L495.6,386.878 Z" id="Shape" fill="url(#linearGradient-1)"></path>
            <path d="M275.517,133 C196.933,133 133,196.933 133,275.516 C133,354.099 196.933,418.033 275.517,418.033 C354.101,418.033 418.034,354.1 418.034,275.516 C418.034,196.932 354.101,133 275.517,133 Z M275.517,362.6 C227.422,362.6 188.434,323.612 188.434,275.517 C188.434,227.422 227.423,188.434 275.517,188.434 C323.612,188.434 362.6,227.422 362.6,275.517 C362.6,323.611 323.611,362.6 275.517,362.6 Z" id="Shape" fill="url(#linearGradient-2)"></path>
            <circle id="Oval" fill="url(#linearGradient-3)" cx="418.31" cy="134.07" r="34.15"></circle>
            <rect id="Rectangle" fill="#FFFFFF" style="mix-blend-mode: color;" x="0" y="0" width="596" height="551"></rect>
        </g>
    </g>
</svg>