<svg id="Layer_1" data-name="Layer 1" xmlns="http://www.w3.org/2000/svg" viewBox="0 0 1259.39 1271.55"><defs><style>.cls-1{fill:#37c5f3;}.cls-2{fill:#ffc658;}.cls-3{fill:#5855a5;}</style></defs><title>logo-symbol</title><path class="cls-1" d="M6466.05,2679.39C7080.63,2466.13,7080.63,2077,7080.63,2077V1601.16l-226.21,131v293.49s7.08,232.94-388.37,386Z" transform="translate(-6466.05 -1601.16)"/><path class="cls-2" d="M7725.44,2679.39C7110.85,2466.13,7110.85,2077,7110.85,2077V1601.16l226.23,131v293.49s-7.08,232.94,388.36,386Z" transform="translate(-6466.05 -1601.16)"/><path class="cls-3" d="M7717.05,2748s-191.44-110.83-396.28-231.73c-225-110.83-440,0-440,0L6474.45,2748l215.29,123.62L6911,2748s184.71-96.71,399.71,9.19l195.74,115.52Z" transform="translate(-6466.05 -1601.16)"/></svg>