<svg id="Layer_1" data-name="Layer 1" xmlns="http://www.w3.org/2000/svg" viewBox="0 0 3674.28 1843.61"><defs><style>.cls-1{fill:#6b6c6c;}.cls-2{fill:#2d2e2d;}.cls-3{fill:#37c5f3;}.cls-4{fill:#ffc658;}.cls-5{fill:#5855a5;}</style></defs><title>TheGrowthHustlers2018</title><path class="cls-1" d="M5451.43,3190.47h-80.55v249.44h-32.69V3190.47h-80.36V3160.9h193.6Z" transform="translate(-5257.83 -1601.16)"/><path class="cls-1" d="M5656.31,3439.91H5624.4V3325.12q0-62.26-46.31-62.27-23.34,0-39.3,18t-15.95,46.21v112.85h-31.91v-295h31.91v128.81h.77q23-37.74,65.38-37.75,67.32,0,67.32,81.14Z" transform="translate(-5257.83 -1601.16)"/><path class="cls-1" d="M5876.57,3348.27H5735.89q.78,33.27,17.9,51.37t47.09,18.09q33.66,0,61.87-22.18v30q-26.27,19.07-69.46,19.06-42.22,0-66.35-27.14t-24.13-76.37q0-46.5,26.37-75.78t65.47-29.29q39.11,0,60.51,25.3t21.41,70.24Zm-32.69-27q-.2-27.63-13.33-43t-36.48-15.38a51.55,51.55,0,0,0-38.33,16.15q-15.77,16.15-19.46,42.23Z" transform="translate(-5257.83 -1601.16)"/><path class="cls-1" d="M6246.83,3420.85q-42,23.73-93.39,23.73-59.73,0-96.6-38.52t-36.88-102q0-64.79,41-106.33t103.81-41.54q45.53,0,76.46,14.79v36.19q-33.85-21.4-80.16-21.4-46.89,0-76.86,32.29t-30,83.67q0,52.92,27.82,83.18t75.5,30.25q32.69,0,56.62-13V3324h-61.1v-29.57h93.78Z" transform="translate(-5257.83 -1601.16)"/><path class="cls-1" d="M6411.25,3273q-8.37-6.42-24.13-6.42-20.43,0-34.15,19.26t-13.71,52.54v101.56h-31.91V3240.67h31.91v41.06h.77q6.81-21,20.82-32.79t31.33-11.77q12.45,0,19.07,2.73Z" transform="translate(-5257.83 -1601.16)"/><path class="cls-1" d="M6523.9,3444.58q-44.16,0-70.53-27.92t-26.36-74q0-50.21,27.43-78.41t74.13-28.22q44.57,0,69.56,27.44t25,76.08q0,47.67-26.94,76.37T6523.9,3444.58Zm2.34-181.73q-30.75,0-48.64,20.92t-17.91,57.69q0,35.41,18.1,55.84t48.45,20.43q30.93,0,47.57-20t16.64-57q0-37.35-16.64-57.59T6526.24,3262.85Z" transform="translate(-5257.83 -1601.16)"/><path class="cls-1" d="M6925.11,3240.67l-59.73,199.24H6832.3l-41.06-142.62a93.3,93.3,0,0,1-3.11-18.48h-.78a87.46,87.46,0,0,1-4.08,18.09l-44.56,143H6706.8l-60.32-199.24H6680l41.25,149.82a91.07,91.07,0,0,1,2.72,17.9h1.56a84.24,84.24,0,0,1,3.5-18.29l45.92-149.43h29.19l41.24,150.21a107.15,107.15,0,0,1,2.92,17.9h1.56a82.63,82.63,0,0,1,3.31-17.9l40.47-150.21Z" transform="translate(-5257.83 -1601.16)"/><path class="cls-1" d="M7054.5,3438q-11.3,6.22-29.77,6.22-52.35,0-52.34-58.37V3267.91h-34.25v-27.24h34.25V3192l31.91-10.31v59h50.2v27.24h-50.2v112.27q0,20,6.81,28.6t22.57,8.56a33.56,33.56,0,0,0,20.82-6.61Z" transform="translate(-5257.83 -1601.16)"/><path class="cls-1" d="M7262.49,3439.91h-31.9V3325.12q0-62.26-46.31-62.27-23.35,0-39.31,18T7129,3327.06v112.85h-31.91v-295H7129v128.81h.78q22.95-37.74,65.37-37.75,67.32,0,67.32,81.14Z" transform="translate(-5257.83 -1601.16)"/><path class="cls-2" d="M7672.84,3439.91h-63V3326.28H7494.23v113.63h-62.85v-279h62.85v111.29H7609.8V3160.9h63Z" transform="translate(-5257.83 -1601.16)"/><path class="cls-2" d="M7920,3439.91h-61.29v-30.35h-1q-22.77,35.22-60.9,35.22-69.27,0-69.27-83.86V3240.67h61.29v114.8q0,42.22,33.46,42.22,16.55,0,26.47-11.57t9.92-31.43v-114H7920Z" transform="translate(-5257.83 -1601.16)"/><path class="cls-2" d="M7958.67,3434.66v-49.81a130.68,130.68,0,0,0,30.25,13.62,100.17,100.17,0,0,0,28.51,4.48q16.35,0,25.78-4.48t9.44-13.62a12.63,12.63,0,0,0-4.28-9.73,40.06,40.06,0,0,0-11-6.81,126,126,0,0,0-14.69-5.25q-8-2.34-15.37-5.25a147.65,147.65,0,0,1-20.91-9.64,60,60,0,0,1-15.18-12,46.93,46.93,0,0,1-9.34-15.76,62.93,62.93,0,0,1-3.21-21.21q0-16.72,7.29-28.8a59.72,59.72,0,0,1,19.46-19.75,89,89,0,0,1,27.83-11.28,145,145,0,0,1,32.59-3.6,181.09,181.09,0,0,1,26.85,2,199.2,199.2,0,0,1,26.85,5.94v47.47a97.18,97.18,0,0,0-25-10.21,105.51,105.51,0,0,0-26.17-3.41,58.28,58.28,0,0,0-11.39,1.07,37.29,37.29,0,0,0-9.43,3.12,17.2,17.2,0,0,0-6.42,5.25,12.07,12.07,0,0,0-2.34,7.3,13.51,13.51,0,0,0,3.5,9.34,30.46,30.46,0,0,0,9.15,6.71,89.83,89.83,0,0,0,12.55,5.06q6.9,2.24,13.72,4.57a178.57,178.57,0,0,1,22.18,9.34,71,71,0,0,1,17,11.87,46.6,46.6,0,0,1,10.9,15.95q3.79,9.15,3.79,21.79,0,17.72-7.68,30.26a61.59,61.59,0,0,1-20.43,20.43,92.78,92.78,0,0,1-29.38,11.48,162.91,162.91,0,0,1-34.54,3.6Q7986.69,3444.78,7958.67,3434.66Z" transform="translate(-5257.83 -1601.16)"/><path class="cls-2" d="M8267.45,3437.58q-13.62,7.2-41.05,7.2-65,0-65-67.52V3286h-32.3v-45.34h32.3v-43l61.29-17.51v60.51h44.75V3286H8222.7v80.55q0,31.14,24.71,31.13,9.74,0,20-5.64Z" transform="translate(-5257.83 -1601.16)"/><path class="cls-2" d="M8363.57,3439.91h-61.48v-295h61.48Z" transform="translate(-5257.83 -1601.16)"/><path class="cls-2" d="M8594.33,3357.81h-130q3.1,43.38,54.67,43.38,32.88,0,57.79-15.56V3430q-27.63,14.79-71.8,14.79-48.26,0-74.91-26.76t-26.65-74.61q0-49.62,28.79-78.61t70.83-29q43.57,0,67.42,25.88t23.83,70.24Zm-57-37.75q0-42.81-34.63-42.81-14.79,0-25.59,12.26T8464,3320.06Z" transform="translate(-5257.83 -1601.16)"/><path class="cls-2" d="M8760.89,3296.13q-11.1-6-25.88-6-20,0-31.33,14.68t-11.28,40v95.14h-61.49V3240.67h61.49v37h.77q14.59-40.47,52.54-40.47,9.72,0,15.18,2.34Z" transform="translate(-5257.83 -1601.16)"/><path class="cls-2" d="M8779.17,3434.66v-49.81a130.74,130.74,0,0,0,30.26,13.62,100.07,100.07,0,0,0,28.51,4.48q16.33,0,25.78-4.48t9.43-13.62a12.63,12.63,0,0,0-4.28-9.73,40,40,0,0,0-11-6.81,126.64,126.64,0,0,0-14.69-5.25q-8-2.34-15.37-5.25a147.28,147.28,0,0,1-20.92-9.64,60.39,60.39,0,0,1-15.18-12,47.26,47.26,0,0,1-9.34-15.76,63.18,63.18,0,0,1-3.21-21.21q0-16.72,7.3-28.8a59.72,59.72,0,0,1,19.46-19.75,88.92,88.92,0,0,1,27.82-11.28,145.07,145.07,0,0,1,32.59-3.6,181.09,181.09,0,0,1,26.85,2,199.2,199.2,0,0,1,26.85,5.94v47.47a97,97,0,0,0-25-10.21,105.45,105.45,0,0,0-26.17-3.41,58.25,58.25,0,0,0-11.38,1.07,37.5,37.5,0,0,0-9.44,3.12,17.36,17.36,0,0,0-6.42,5.25,12.13,12.13,0,0,0-2.33,7.3,13.47,13.47,0,0,0,3.5,9.34,30.41,30.41,0,0,0,9.14,6.71,90.83,90.83,0,0,0,12.55,5.06q6.92,2.24,13.72,4.57a177.93,177.93,0,0,1,22.18,9.34,70.9,70.9,0,0,1,17,11.87,46.71,46.71,0,0,1,10.89,15.95q3.8,9.15,3.8,21.79,0,17.72-7.69,30.26A61.4,61.4,0,0,1,8904,3429.7a92.68,92.68,0,0,1-29.38,11.48,162.82,162.82,0,0,1-34.53,3.6Q8807.19,3444.78,8779.17,3434.66Z" transform="translate(-5257.83 -1601.16)"/><path class="cls-3" d="M6466.05,2679.39C7080.63,2466.13,7080.63,2077,7080.63,2077V1601.16l-226.21,131v293.49s7.08,232.94-388.37,386Z" transform="translate(-5257.83 -1601.16)"/><path class="cls-4" d="M7725.44,2679.39C7110.85,2466.13,7110.85,2077,7110.85,2077V1601.16l226.23,131v293.49s-7.08,232.94,388.36,386Z" transform="translate(-5257.83 -1601.16)"/><path class="cls-5" d="M7717.05,2748s-191.44-110.83-396.28-231.73c-225-110.83-440,0-440,0L6474.45,2748l215.29,123.62L6911,2748s184.71-96.71,399.71,9.19l195.74,115.52Z" transform="translate(-5257.83 -1601.16)"/></svg>