<?xml version="1.0" encoding="UTF-8"?>
<svg width="13187px" height="3980px" viewBox="0 0 13187 3980" version="1.1" xmlns="http://www.w3.org/2000/svg" xmlns:xlink="http://www.w3.org/1999/xlink">
    <!-- Generator: Sketch 51.2 (57519) - http://www.bohemiancoding.com/sketch -->
    <title>Artboard 2</title>
    <desc>Created with Sketch.</desc>
    <defs></defs>
    <g id="Artboard-2" stroke="none" stroke-width="1" fill="none" fill-rule="evenodd">
        <g id="Logo-Copy-33">
            <g id="Group" transform="translate(1915.879555, 1930.220164) rotate(33.000000) translate(-1915.879555, -1930.220164) translate(550.379555, 516.220164)">
                <g id="Segments-circle" transform="translate(-0.000000, 28.690017)">
                    <path d="M1381.39428,55.3693562 C1863.47105,55.3693562 2308.849,312.758179 2549.81993,730.576132 C2790.79085,1148.39408 2790.79085,1663.17173 2549.81993,2080.98968 L2316.1348,1945.94833 C2508.93852,1611.72097 2508.93852,1199.84484 2316.1348,865.617487 C2123.33108,531.390133 1767.00173,325.452066 1381.39428,325.452066 L1381.39428,55.3693562 Z" id="Segment-1" fill="#C6A41D"></path>
                    <path d="M1372.66889,83.5662445 C1854.74566,83.5662445 2300.12361,340.955067 2541.09454,758.77302 C2782.06546,1176.59097 2782.06546,1691.36862 2541.09454,2109.18657 L2307.40941,1974.14522 C2500.21313,1639.91786 2500.21313,1228.04173 2307.40941,893.814375 C2114.60568,559.587021 1758.27634,353.648955 1372.66889,353.648955 L1372.66889,83.5662445 Z" id="Segment-1" fill="#F7CA18"></path>
                    <path d="M2552.16382,2124.88532 C2311.33121,2541.92376 1866.20889,2798.83238 1384.40882,2798.83238 C902.608745,2798.83238 457.486428,2541.92376 216.653815,2124.88532 L450.204815,1990.09591 C642.897875,2323.69971 999.022697,2529.25356 1384.40882,2529.25356 C1769.79494,2529.25356 2125.91976,2323.69971 2318.61282,1990.09591 L2552.16382,2124.88532 Z" id="Segment-2" fill="#2E89C9"></path>
                    <path d="M2536.64475,2107.92686 C2295.81214,2524.9653 1850.68982,2781.87392 1368.88975,2781.87392 C887.089678,2781.87392 441.967362,2524.9653 201.134748,2107.92686 L434.685749,1973.13745 C627.378809,2306.74124 983.503631,2512.29509 1368.88975,2512.29509 C1754.27587,2512.29509 2110.40069,2306.74124 2303.09375,1973.13745 L2536.64475,2107.92686 Z" id="Segment-2" fill="#6BB9F0"></path>
                    <path d="M181.109978,2115.19727 C-59.8609455,1697.37932 -59.8609455,1182.60167 181.109978,764.78372 C362.736775,449.862173 660.488745,226.081625 1002.55337,134.960139 C1114.31842,105.187411 1230.81414,89.5769443 1349.53562,89.5769443 L1349.53562,359.659655 C963.928176,359.659655 607.598831,565.597721 414.795107,899.825075 C221.991384,1234.05243 221.991384,1645.92856 414.795107,1980.15592 L181.109978,2115.19727 Z" id="Segment-3" fill="#6C5ACA"></path>
                    <path d="M204.243248,2109.18657 C-36.7276755,1691.36862 -36.7276755,1176.59097 204.243248,758.77302 C385.870045,443.851473 683.622015,220.070926 1025.68664,128.949439 C1137.45169,99.1767117 1253.94741,83.5662445 1372.66889,83.5662445 L1372.66889,353.648955 C987.061446,353.648955 630.732101,559.587021 437.928377,893.814375 C245.124654,1228.04173 245.124654,1639.91786 437.928377,1974.14522 L204.243248,2109.18657 Z" id="Segment-3" fill="#8C7AE6"></path>
                </g>
                <path d="M2629.00357,2073.04398 C2629.00357,1942.59631 2523.25484,1836.84758 2392.80717,1836.84758 C2262.3595,1836.84758 2156.61077,1942.59631 2156.61077,2073.04398 C2156.61077,2203.49165 2629.00357,2203.49165 2629.00357,2073.04398 Z" id="Oval-2-Copy-2" stroke="#FFFFFF" stroke-width="15" fill="#6BB9F0" fill-rule="nonzero" transform="translate(2392.807173, 2003.863660) rotate(7.000000) translate(-2392.807173, -2003.863660) "></path>
                <circle id="Oval-2-Copy-2" fill="#2E89C9" fill-rule="nonzero" transform="translate(2381.989733, 2096.608676) rotate(7.000000) translate(-2381.989733, -2096.608676) " cx="2381.98973" cy="2096.60868" r="236.1964"></circle>
                <circle id="Oval-2-Copy-2" fill="#6BB9F0" fill-rule="nonzero" transform="translate(2384.376213, 2072.528324) rotate(7.000000) translate(-2384.376213, -2072.528324) " cx="2384.37621" cy="2072.52832" r="236.1964"></circle>
                <path d="M314.848379,2320.41531 C445.296048,2320.41531 551.044779,2214.66658 551.044779,2084.21891 C551.044779,1953.77124 184.400709,2320.41531 314.848379,2320.41531 Z" id="Oval-2-Copy-4" stroke="#FFFFFF" stroke-width="15" fill="#BF55EC" fill-rule="nonzero" transform="translate(418.914564, 2188.285098) rotate(7.000000) translate(-418.914564, -2188.285098) "></path>
                <circle id="Oval-2-Copy-4" fill="#6C5ACA" fill-rule="nonzero" transform="translate(313.898671, 2050.125940) rotate(7.000000) translate(-313.898671, -2050.125940) " cx="313.898671" cy="2050.12594" r="236.1964"></circle>
                <circle id="Oval-2-Copy-4" fill="#8C7AE6" fill-rule="nonzero" transform="translate(328.306550, 2072.312128) rotate(7.000000) translate(-328.306550, -2072.312128) " cx="328.30655" cy="2072.31213" r="236.1964"></circle>
                <path d="M1375.49938,493.502227 C1505.94705,493.502227 1505.94705,21.1094271 1375.49938,21.1094271 C1245.05171,21.1094271 1139.30298,126.858157 1139.30298,257.305827 C1139.30298,387.753497 1245.05171,493.502227 1375.49938,493.502227 Z" id="Oval-2-Copy-5" stroke="#FFFFFF" stroke-width="15" fill="#F7CA18" fill-rule="nonzero" transform="translate(1306.319058, 257.305827) rotate(7.000000) translate(-1306.319058, -257.305827) "></path>
                <circle id="Oval-2-Copy-7" fill="#C6A41D" fill-rule="nonzero" transform="translate(1402.206696, 263.514414) rotate(7.000000) translate(-1402.206696, -263.514414) " cx="1402.2067" cy="263.514414" r="236.1964"></circle>
                <circle id="Oval-2-Copy-5" fill="#F7CA18" fill-rule="nonzero" transform="translate(1377.693923, 267.052864) rotate(7.000000) translate(-1377.693923, -267.052864) " cx="1377.69392" cy="267.052864" r="236.1964"></circle>
            </g>
            <text id="THE-GROWTH" font-family="Quicksand-Light, Quicksand" font-size="1300" font-weight="300" fill="#464949">
                <tspan x="3400.1" y="1559">THE GROWTH</tspan>
            </text>
            <text id="Hustlers" font-family="AvenirNext-HeavyItalic, Avenir Next" font-size="2100" font-style="italic" font-weight="600" fill="#464949">
                <tspan x="3455.25" y="3340">Hustlers</tspan>
            </text>
        </g>
    </g>
</svg>