<?xml version="1.0" encoding="UTF-8"?>
<svg width="916px" height="567px" viewBox="0 0 916 567" version="1.1" xmlns="http://www.w3.org/2000/svg" xmlns:xlink="http://www.w3.org/1999/xlink">
    <!-- Generator: Sketch 51.2 (57519) - http://www.bohemiancoding.com/sketch -->
    <title>rocket</title>
    <desc>Created with Sketch.</desc>
    <defs>
        <linearGradient x1="49.9999955%" y1="99.9890645%" x2="49.9999955%" y2="-0.00273388376%" id="linearGradient-1">
            <stop stop-color="#808080" stop-opacity="0.25" offset="0%"></stop>
            <stop stop-color="#808080" stop-opacity="0.12" offset="54%"></stop>
            <stop stop-color="#808080" stop-opacity="0.1" offset="100%"></stop>
        </linearGradient>
    </defs>
    <g id="Page-1" stroke="none" stroke-width="1" fill="none" fill-rule="evenodd">
        <g id="rocket">
            <path d="M230.74,377.11 C173.06,357.18 107.11,340.31 53.22,368.95 C46.39,372.58 39.66,377.15 35.98,383.95 C26.26,401.84 41.71,425.04 34.18,443.95 C26.65,462.86 -1.69,472.38 0.63,492.58 C1.24,497.86 4.1,502.64 7.47,506.76 C28.58,532.55 67.28,535.16 99.99,528.76 C132.7,522.36 164.69,509.09 197.99,510.76 C229.99,512.41 259.43,527.76 288.75,540.68 C338.18,562.52 395.91,578.19 445.3,556.24 C467.93,546.18 486.64,529.05 508.3,517.09 C537.489798,501.120679 571.042201,494.964146 604,499.53 C626,502.63 647,510.43 668.53,515.81 C717.43,528.02 768.47,527.62 818.86,527.14 C828.24,527.05 837.77,526.94 846.76,524.26 C860.07,520.26 871.05,511.05 881.62,502.04 C895.51,490.21 910.14,477.21 914.62,459.52 C919.91,438.52 908.96,416.2 892.72,401.93 C876.48,387.66 855.72,379.86 835.46,372.34 C830.46,370.5 825.12,368.63 820,370.02 C816.64,370.94 813.81,373.18 811.3,375.59 C796.92,389.43 784.77,412.84 765.16,409.08 C758.16,407.74 752.43,402.87 746.89,398.37 C717.31,374.37 677.52,355.84 641.82,369.1 C615.71,378.8 597.28,403.71 570.82,412.5 C552,418.76 531.55,416.05 511.75,417.27 C482.95,419.03 454.92,429.21 426.08,428.59 C352.54,427.01 291.27,356.69 218.03,363.39 C212.29,363.91 206.03,365.23 202.51,369.77" id="Shape" fill-opacity="0.5" fill="#6BB9F0" fill-rule="nonzero" opacity="0.25"></path>
            <path d="M773.43,387.840663 L709.18,387.840663 C710.658339,384.277597 711.425192,380.351447 711.42,376.372256 L711.42,25.7769517 C711.42,11.5407344 701.789645,0 689.91,0 L192.58,0 C180.700355,3.40597411e-14 171.07,11.5407344 171.07,25.7769517 L171.07,376.38424 C171.064808,380.36343 171.831661,384.289581 173.31,387.852646 L106.79,387.852646 C105.275706,387.852621 103.823867,388.575954 102.755919,389.8625 C101.68797,391.149045 101.092016,392.892666 101.1,394.707326 L101.1,400.207847 C101.1,421.267654 115.346299,438.34 132.92,438.34 L747.3,438.34 C755.739189,438.34 763.83273,434.322517 769.800138,427.171351 C775.767545,420.020185 779.12,410.321123 779.12,400.207847 L779.12,394.707326 C779.130658,392.890596 778.535885,391.143886 777.467646,389.85474 C776.399407,388.565594 774.946038,387.840618 773.43,387.840663 Z M377.54,409.651008 L372,402.161191 L508.78,402.161191 L502.68,409.662991 L377.54,409.651008 Z" id="Shape" fill="url(#linearGradient-1)" fill-rule="nonzero"></path>
            <rect id="Rectangle-path" fill="#535461" fill-rule="nonzero" x="177.16" y="7" width="528.12" height="397.69" rx="23.26"></rect>
            <rect id="Rectangle-path" fill="#FFFFFF" fill-rule="nonzero" x="188.28" y="37" width="504.77" height="355.46"></rect>
            <circle id="Oval" fill="#FFFFFF" fill-rule="nonzero" cx="443.45" cy="23.45" r="4.45"></circle>
            <path d="M518.6,393.01 L501.26,410.8 L379,410.8 L363.33,393.01 L114.34,393.01 C111.269297,393.01 108.78,395.499297 108.78,398.57 L108.78,403.05 C108.78,420.226056 122.703944,434.15 139.88,434.15 L740.34,434.15 C748.588233,434.15 756.49864,430.873402 762.331021,425.041021 C768.163402,419.20864 771.44,411.298233 771.44,403.05 L771.44,398.57 C771.44,395.499297 768.950703,393.01 765.88,393.01 L518.6,393.01 Z" id="Shape" fill="#535461" fill-rule="nonzero"></path>
            <polyline id="Shape" stroke="#535461" stroke-width="2" points="254.77 128.19 254.77 356.11 631.67 356.11"></polyline>
            <rect id="Rectangle-path" fill="#6BB9F0" fill-rule="nonzero" opacity="0.5" x="288.12" y="216" width="38.91" height="131.22"></rect>
            <rect id="Rectangle-path" fill="#6BB9F0" fill-rule="nonzero" opacity="0.7" x="354.83" y="165.26" width="38.91" height="181.96"></rect>
            <rect id="Rectangle-path" fill="#6BB9F0" fill-rule="nonzero" opacity="0.5" x="421.54" y="206.17" width="38.91" height="141.04"></rect>
            <rect id="Rectangle-path" fill="#6BB9F0" fill-rule="nonzero" opacity="0.8" x="488.25" y="152" width="38.91" height="195.22"></rect>
            <rect id="Rectangle-path" fill="#6BB9F0" fill-rule="nonzero" x="554.96" y="111.89" width="38.91" height="235.32"></rect>
            <polyline id="Shape" stroke="#535461" stroke-width="2" points="307.02 177.49 374.84 116.34 441.55 174.15 507.15 104.11 573.86 76.31"></polyline>
            <circle id="Oval" fill="#6BB9F0" fill-rule="nonzero" cx="307.02" cy="177.49" r="7.78"></circle>
            <circle id="Oval" fill="#6BB9F0" fill-rule="nonzero" cx="440.44" cy="173.04" r="7.78"></circle>
            <circle id="Oval" fill="#6BB9F0" fill-rule="nonzero" cx="508.26" cy="104.11" r="7.78"></circle>
            <circle id="Oval" fill="#6BB9F0" fill-rule="nonzero" cx="374.84" cy="115.22" r="7.78"></circle>
            <circle id="Oval" fill="#6BB9F0" fill-rule="nonzero" cx="573.86" cy="76.31" r="7.78"></circle>
        </g>
    </g>
</svg>