<?xml version="1.0" encoding="UTF-8"?>
<svg width="430px" height="358px" viewBox="0 0 430 358" version="1.1" xmlns="http://www.w3.org/2000/svg" xmlns:xlink="http://www.w3.org/1999/xlink">
    <!-- Generator: Sketch 51.2 (57519) - http://www.bohemiancoding.com/sketch -->
    <title>004-twitter</title>
    <desc>Created with Sketch.</desc>
    <defs></defs>
    <g id="Page-1" stroke="none" stroke-width="1" fill="none" fill-rule="evenodd">
        <g id="004-twitter" fill-rule="nonzero">
            <path d="M413.632,49.18 C404.519,53.221 395.059,56.409 385.352,58.717 C396.048,48.553 404.09,35.84 408.627,21.65 C409.922,17.599 405.522,14.096 401.864,16.265 C388.36,24.275 373.814,30.284 358.629,34.127 C357.748,34.35 356.839,34.463 355.927,34.463 C353.161,34.463 350.472,33.436 348.357,31.572 C332.201,17.333 311.422,9.491 289.849,9.491 C280.514,9.491 271.089,10.946 261.835,13.816 C233.163,22.709 211.04,46.36 204.099,75.54 C201.495,86.485 200.79,97.44 202.002,108.1 C202.141,109.325 201.562,110.18 201.205,110.581 C200.578,111.284 199.689,111.687 198.766,111.687 C198.663,111.687 198.557,111.682 198.452,111.672 C135.69,105.841 79.094,75.604 39.089,26.532 C37.049,24.029 33.137,24.336 31.511,27.125 C23.677,40.565 19.537,55.937 19.537,71.579 C19.537,95.551 29.168,118.142 45.897,134.611 C38.862,132.943 32.053,130.316 25.728,126.803 C22.668,125.103 18.903,127.288 18.86,130.788 C18.422,166.4 39.272,198.088 70.506,212.357 C69.877,212.372 69.248,212.379 68.618,212.379 C63.667,212.379 58.654,211.901 53.72,210.958 C50.274,210.3 47.379,213.569 48.449,216.91 C58.587,248.561 85.839,271.891 118.451,277.188 C91.385,295.357 59.866,304.941 27.061,304.941 L16.834,304.935 C13.683,304.935 11.018,306.989 10.215,310.041 C9.424,313.047 10.881,316.218 13.568,317.781 C50.534,339.294 92.699,350.664 135.523,350.664 C173.008,350.664 208.072,343.225 239.742,328.555 C268.775,315.106 294.431,295.881 315.997,271.414 C336.087,248.622 351.797,222.311 362.689,193.213 C373.072,165.476 378.56,135.88 378.56,107.624 L378.56,106.278 C378.559,101.741 380.611,97.472 384.191,94.566 C397.776,83.536 409.606,70.552 419.351,55.975 C421.924,52.126 417.866,47.302 413.632,49.18 Z" id="Shape" fill="#76A9EA"></path>
            <rect id="Rectangle" fill="#FFFFFF" style="mix-blend-mode: color;" x="0" y="0" width="430" height="358"></rect>
        </g>
    </g>
</svg>