<?xml version="1.0" encoding="UTF-8"?>
<svg width="1122px" height="153px" viewBox="0 0 1122 153" version="1.1" xmlns="http://www.w3.org/2000/svg" xmlns:xlink="http://www.w3.org/1999/xlink">
    <!-- Generator: Sketch 51.3 (57544) - http://www.bohemiancoding.com/sketch -->
    <title>Group 5</title>
    <desc>Created with Sketch.</desc>
    <defs></defs>
    <g id="Page-1" stroke="none" stroke-width="1" fill="none" fill-rule="evenodd">
        <g id="Artboard-Copy" transform="translate(-123.000000, -3441.000000)" fill="#6BB9F0">
            <g id="Our-Story" transform="translate(123.000000, 2327.000000)">
                <g id="Group-5" transform="translate(0.000000, 1114.000000)">
                    <path d="M-9.09494702e-13,-1.0658141e-13 C106.833333,-1.0658141e-13 213.666667,-1.0658141e-13 320.5,-1.0658141e-13 L320.5,-1.63424829e-13 C336.240115,-1.3835618e-13 349,12.7598846 349,28.5 L349,28.5 C349,44.2401154 336.240115,57 320.5,57 C213.666667,57 106.833333,57 -9.09494702e-13,57 C-9.09494702e-13,57 -9.09494702e-13,-1.0658141e-13 -9.09494702e-13,-1.0658141e-13 Z" id="Rectangle-3" opacity="0.698604911"></path>
                    <path d="M0,0 C78.5,0 157,0 235.5,0 L235.5,0 C251.240115,-2.89141229e-15 264,12.7598846 264,28.5 L264,28.5 C264,44.2401154 251.240115,57 235.5,57 C157,57 78.5,57 0,57 C0,57 0,0 0,0 Z" id="Rectangle-3-Copy" opacity="0.900948661"></path>
                    <path d="M-9.09494702e-13,85 C115.5,85 231,85 346.5,85 L346.5,85 C362.240115,85 375,97.7598846 375,113.5 L375,113.5 C375,129.240115 362.240115,142 346.5,142 C231,142 115.5,142 -9.09494702e-13,142 C-9.09494702e-13,142 -9.09494702e-13,85 -9.09494702e-13,85 Z" id="Rectangle-3-Copy-2" opacity="0.227734375"></path>
                    <path d="M0,85 C62.5,85 125,85 187.5,85 L187.5,85 C203.240115,85 216,97.7598846 216,113.5 L216,113.5 C216,129.240115 203.240115,142 187.5,142 C125,142 62.5,142 0,142 C0,142 0,85 0,85 Z" id="Rectangle-3-Copy-5" opacity="0.718136161"></path>
                    <path d="M-9.09494702e-13,45 C155.5,45 311,45 466.5,45 L466.5,45 C482.240115,45 495,57.7598846 495,73.5 L495,73.5 C495,89.2401154 482.240115,102 466.5,102 C311,102 155.5,102 -9.09494702e-13,102 C-9.09494702e-13,102 -9.09494702e-13,45 -9.09494702e-13,45 Z" id="Rectangle-3-Copy-3" opacity="0.521819196"></path>
                    <path d="M0,45 C120.166667,45 240.333333,45 360.5,45 L360.5,45 C376.240115,45 389,57.7598846 389,73.5 L389,73.5 C389,89.2401154 376.240115,102 360.5,102 C240.333333,102 120.166667,102 0,102 C0,102 0,45 0,45 Z" id="Rectangle-3-Copy-4" opacity="0.640904018"></path>
                    <path d="M786,8 C888.5,8 991,8 1093.5,8 L1093.5,8 C1109.24012,8 1122,20.7598846 1122,36.5 L1122,36.5 C1122,52.2401154 1109.24012,65 1093.5,65 C991,65 888.5,65 786,65 C786,65 786,8 786,8 Z" id="Rectangle-3" opacity="0.634151786" transform="translate(954.000000, 36.500000) rotate(180.000000) translate(-954.000000, -36.500000) "></path>
                    <path d="M721,8 C845.166667,8 969.333333,8 1093.5,8 L1093.5,8 C1109.24012,8 1122,20.7598846 1122,36.5 L1122,36.5 C1122,52.2401154 1109.24012,65 1093.5,65 C969.333333,65 845.166667,65 721,65 C721,65 721,8 721,8 Z" id="Rectangle-3-Copy" opacity="0.436886161" transform="translate(921.500000, 36.500000) rotate(180.000000) translate(-921.500000, -36.500000) "></path>
                    <path d="M747,96 C862.5,96 978,96 1093.5,96 L1093.5,96 C1109.24012,96 1122,108.759885 1122,124.5 L1122,124.5 C1122,140.240115 1109.24012,153 1093.5,153 C978,153 862.5,153 747,153 C747,153 747,96 747,96 Z" id="Rectangle-3-Copy-2" opacity="0.227734375" transform="translate(934.500000, 124.500000) rotate(180.000000) translate(-934.500000, -124.500000) "></path>
                    <path d="M906,96 C968.5,96 1031,96 1093.5,96 L1093.5,96 C1109.24012,96 1122,108.759885 1122,124.5 L1122,124.5 C1122,140.240115 1109.24012,153 1093.5,153 C1031,153 968.5,153 906,153 C906,153 906,96 906,96 Z" id="Rectangle-3-Copy-6" opacity="0.717522321" transform="translate(1014.000000, 124.500000) rotate(180.000000) translate(-1014.000000, -124.500000) "></path>
                    <path d="M627,57 C782.5,57 938,57 1093.5,57 L1093.5,57 C1109.24012,57 1122,69.7598846 1122,85.5 L1122,85.5 C1122,101.240115 1109.24012,114 1093.5,114 C938,114 782.5,114 627,114 C627,114 627,57 627,57 Z" id="Rectangle-3-Copy-3" opacity="0.521819196" transform="translate(874.500000, 85.500000) rotate(180.000000) translate(-874.500000, -85.500000) "></path>
                    <path d="M797,57 C895.833333,57 994.666667,57 1093.5,57 L1093.5,57 C1109.24012,57 1122,69.7598846 1122,85.5 L1122,85.5 C1122,101.240115 1109.24012,114 1093.5,114 C994.666667,114 895.833333,114 797,114 C797,114 797,57 797,57 Z" id="Rectangle-3-Copy-7" opacity="0.697433036" transform="translate(959.500000, 85.500000) rotate(180.000000) translate(-959.500000, -85.500000) "></path>
                </g>
            </g>
        </g>
    </g>
</svg>